<svg xmlns="http://www.w3.org/2000/svg" viewBox="0 0 50 40.158"><g id="Layer_2" data-name="Layer 2"><g id="Layer_1-2" data-name="Layer 1"><g id="Symbols"><path id="Shape-Copy" d="M47.951,10.1a.732.732,0,1,0-1.269.731,14.3,14.3,0,0,1,1.853,7.235V36.489a2.206,2.206,0,0,1-2.2,2.2H2.725a1.26,1.26,0,0,1,0-2.52H8.357a.733.733,0,1,0,0-1.465h-4.9V29.477H44.222a.8.8,0,0,1,.8.8V33.9a.805.805,0,0,1-.8.8H11.287a.733.733,0,0,0,0,1.465H44.222A2.272,2.272,0,0,0,46.491,33.9V30.28a2.271,2.271,0,0,0-2.269-2.268H2.725a1.26,1.26,0,0,1,0-2.52h41.5a2.272,2.272,0,0,0,2.269-2.269V19.6a2.271,2.271,0,0,0-2.268-2.268H2.789l-.047,0H2.733a1.292,1.292,0,0,1-1.268-1.224,1.255,1.255,0,0,1,.77-1.2C3.6,14.33,19.945,6.7,26.414,3.683a6.064,6.064,0,0,1,.439,1.205,4.407,4.407,0,1,0,1.5-.036,7.937,7.937,0,0,0-.606-1.791l1.249-.584A7.017,7.017,0,0,1,33.9,2.064c3.322.941,7.951,2.826,11.136,6.467a.732.732,0,0,0,1.1-.964C42.716,3.656,37.811,1.65,34.3.655a8.471,8.471,0,0,0-5.928.5l-1.425.666A5.62,5.62,0,0,0,24.19.031a.732.732,0,1,0-.421,1.4A4.228,4.228,0,0,1,25.55,2.469C18.952,5.55,2.977,13.005,1.664,13.56A2.71,2.71,0,0,0,0,16.143a2.753,2.753,0,0,0,1.991,2.54v5.445a2.724,2.724,0,0,0,0,5.248v5.433a2.725,2.725,0,0,0,.733,5.349H46.332A3.673,3.673,0,0,0,50,36.489V18.063A15.745,15.745,0,0,0,47.951,10.1ZM3.457,18.8H44.223a.8.8,0,0,1,.8.721c0,.027,0,.054,0,.082v3.624a.8.8,0,0,1-.8.8H3.457ZM27.67,6.27q.031,0,.063,0l.029,0a2.923,2.923,0,1,1-.092,0Z" style="fill:#fff"/></g></g></g></svg>