<svg xmlns="http://www.w3.org/2000/svg" viewBox="0 0 133.165 133.165"><g id="Layer_2" data-name="Layer 2"><g id="Layer_1-2" data-name="Layer 1"><rect width="133.165" height="133.165" rx="26.864"/><path d="M112.245,52.533H96.562L83.555,33.022a3.513,3.513,0,1,0-5.845,3.9L88.119,52.533H45.045l10.41-15.614a3.513,3.513,0,1,0-5.845-3.9L36.6,52.533H20.92a3.513,3.513,0,1,0,0,7.025h3.793L27.42,92.046a10.6,10.6,0,0,0,10.5,9.663H95.243a10.6,10.6,0,0,0,10.5-9.663l2.707-32.488h3.793a3.513,3.513,0,1,0,0-7.025ZM52.532,87.658a3.513,3.513,0,1,1-7.025,0V70.1a3.513,3.513,0,1,1,7.025,0Zm17.563,0a3.513,3.513,0,1,1-7.025,0V70.1a3.513,3.513,0,1,1,7.025,0Zm17.563,0a3.513,3.513,0,0,1-7.026,0V70.1a3.513,3.513,0,0,1,7.026,0Z" style="fill:#fff"/></g></g></svg>