<svg xmlns="http://www.w3.org/2000/svg" viewBox="0 0 44.678 50"><g id="Layer_2" data-name="Layer 2"><g id="Layer_1-2" data-name="Layer 1"><g id="Symbols"><path id="Combined-Shape-Copy" d="M28.564,0a3.667,3.667,0,0,1,3.663,3.662v2.2H43.945a.733.733,0,0,1,.733.733V27.1a.733.733,0,0,1-.733.732H32.227V46.338A3.667,3.667,0,0,1,28.564,50H3.662A3.666,3.666,0,0,1,0,46.338V3.662A3.666,3.666,0,0,1,3.662,0Zm0,1.465H3.662a2.2,2.2,0,0,0-2.2,2.2V46.338a2.2,2.2,0,0,0,2.2,2.2h24.9a2.2,2.2,0,0,0,2.2-2.2V27.832H29.3V40.479a.733.733,0,0,1-.733.732H3.662a.732.732,0,0,1-.732-.732V28.564a.733.733,0,0,1,1.465,0V39.746H27.832V27.832H13.184a.733.733,0,0,1-.733-.732V6.592a.733.733,0,0,1,.733-.733H27.832V4.395H4.395v21.24a.733.733,0,0,1-1.465,0V3.662a.732.732,0,0,1,.732-.732h24.9a.733.733,0,0,1,.733.732v2.2h1.465v-2.2A2.2,2.2,0,0,0,28.564,1.465ZM19.043,42.676a2.2,2.2,0,1,1,0,4.394H13.184a2.2,2.2,0,1,1,0-4.394Zm0,1.465H13.184a.732.732,0,1,0,0,1.464h5.859a.732.732,0,0,0,0-1.464Zm14.31-26.374-2.569,1.957a3.671,3.671,0,0,1-4.439,0l-2.569-1.957-8.994,6.852a2.211,2.211,0,0,0-.866,1.748h29.3a2.208,2.208,0,0,0-.866-1.747ZM13.916,10.254V23.438l8.652-6.592Zm29.3,0-8.652,6.592,8.652,6.591Zm0-2.93h-29.3a2.213,2.213,0,0,0,.865,1.748l12.452,9.487a2.2,2.2,0,0,0,2.663,0L42.347,9.072A2.21,2.21,0,0,0,43.213,7.324Z" style="fill:#fff"/></g></g></g></svg>