<svg xmlns="http://www.w3.org/2000/svg" viewBox="0 0 156.582 24.461"><g id="Layer_2" data-name="Layer 2"><g id="Layer_1-2" data-name="Layer 1"><path d="M156.582,19.494a24.67,24.67,0,0,1-2.805,3.241c-1.673,1.384-3.47.783-4.322-1.226a5.68,5.68,0,0,0-.275-.5c-1.965,3.519-3.714,2.746-4.709.292-.538.576-1.023,1.19-1.6,1.7-1.829,1.606-3.693,1.312-5-.744-.056-.09-.123-.173-.278-.389-.39.428-.725.843-1.109,1.207a2.886,2.886,0,0,1-2.175.96,2.139,2.139,0,0,1-2.1-2c-.034-.339-.05-.68-.069-.941-.945.056-1.805.072-2.653.18-.211.027-.4.338-.571.541a9.269,9.269,0,0,1-1.77,2.043c-1.45.9-2.866.249-3.427-1.361-.071-.2-.13-.412-.175-.556a14.567,14.567,0,0,1-1.853,1.608,4.8,4.8,0,0,1-2.085.76,2.315,2.315,0,0,1-2.6-2.475,27.355,27.355,0,0,0-.172-3.241,7,7,0,0,0-.639.938c-.639,1.351-1.237,2.722-1.875,4.073-.113.239-.352.589-.529.587a1.069,1.069,0,0,1-.8-.431,3.1,3.1,0,0,1-.337-1.224,13.861,13.861,0,0,1-.013-1.487c-.972.066-1.882.1-2.784.207a1,1,0,0,0-.55.433,11.26,11.26,0,0,1-1.252,1.775c-1.626,1.478-3.71.836-4.059-1.316a5.89,5.89,0,0,1,1.766-5.728,1.853,1.853,0,0,0,.321-.461A1.69,1.69,0,0,1,109,15.693a4.429,4.429,0,0,1,.89,2.988c.01.637-.345,1.417.774,1.508,1.174.094,2.186-.407,2.306-1.319.183-1.4.266-2.811.4-4.217.269-2.9.375-5.819,1.351-8.6a6.7,6.7,0,0,1,.7-1.376,1.338,1.338,0,0,1,1.579-.725A1.694,1.694,0,0,1,118.356,5.5a5.524,5.524,0,0,1-.264,1.924c-1.113,3.329-2.322,6.627-3.4,9.968a22.589,22.589,0,0,0-.564,3.389l.3.086c.3-.609.559-1.24.9-1.822a14.682,14.682,0,0,1,1.28-1.877,1.124,1.124,0,0,1,1.61-.242,1.849,1.849,0,0,1,.347,1.289c-.008,1.133-.225,2.273-.143,3.394a1.373,1.373,0,0,0,2.1,1.227,4.614,4.614,0,0,0,1.612-1.2,12.731,12.731,0,0,0,1.993-3.331,10.3,10.3,0,0,1,2.161-2.969,1.667,1.667,0,0,1,2.628.784,9.144,9.144,0,0,1,.553,3c.024.816.324,1.043,1.041,1.066a2.007,2.007,0,0,0,2.153-1.372c.8-1.794,1.944-3.2,4.077-3.456a.573.573,0,0,1,.351.138,6.768,6.768,0,0,1,.063-.7,41.3,41.3,0,0,1,1.765-7.275,11.371,11.371,0,0,1,1.1-2.082,1.512,1.512,0,0,1,1.791-.819,1.479,1.479,0,0,1,.883,1.685,26.152,26.152,0,0,1-.768,4.974c-.949,3-2.149,5.924-3.271,8.869-.33.868.724,2.368,1.794,2.488a2.931,2.931,0,0,0,2.364-1.06,8.491,8.491,0,0,0,2.317-4.661c.123-.544.169-1.382,1.042-1.126.918.269.3.982.234,1.508-.153,1.182-.4,2.358-.467,3.544-.021.386.4.8.624,1.2.372-.217.909-.343,1.084-.665a31.3,31.3,0,0,0,1.383-3.107,8.935,8.935,0,0,0,.3-1.185c.132-.523.439-.833,1-.685.617.162.305.626.3,1.008a30.355,30.355,0,0,0-.007,3.8c.1.986.9,1.367,1.879,1.1a4.217,4.217,0,0,0,2.375-1.888c.569-.853,1.127-1.713,1.69-2.57Zm-22.256,3.463c.41-.152.768-.177.947-.369.642-.688,1.235-1.423,1.815-2.166.094-.12.039-.369.026-.556-.051-.757-.13-1.513-.166-2.27-.039-.829-.572-1.14-1.3-.733-1.342.755-2.54,3.97-1.968,5.385C133.8,22.525,134.107,22.723,134.326,22.957Zm3.861-4.852c1.665-2.855,3.574-9.716,3.01-11.788C139.63,7.175,137.766,14.36,138.187,18.105Zm-32.115.4a4.006,4.006,0,0,0-.685,3.918,1.52,1.52,0,0,0,1.008.634c.726.105,2.022-1.364,1.936-2.1a.524.524,0,0,0-.151-.27C107.481,19.957,106.777,19.232,106.072,18.5Zm19.615-.061a4.533,4.533,0,0,0-.762,3.595,1.636,1.636,0,0,0,.9,1c.82.277,2.3-1.234,2.152-2.1a.58.58,0,0,0-.163-.268C127.133,19.952,126.448,19.239,125.687,18.442Zm-10.894-5.353.2.05c.271-.746.589-1.478.8-2.24q.657-2.343,1.207-4.715c.059-.259-.148-.58-.232-.872-.234.218-.613.4-.676.662-.379,1.549-.707,3.112-1,4.679C114.941,11.455,114.89,12.276,114.793,13.089Zm13.26,6.165.273-.094a19.971,19.971,0,0,0-.315-2.205c-.063-.254-.448-.429-.686-.639-.161.267-.437.523-.463.8A2.35,2.35,0,0,0,128.053,19.254Zm-19.422.022c-.1-.934-.134-1.7-.291-2.45-.042-.2-.447-.438-.7-.448-.147-.006-.416.381-.45.618A2.249,2.249,0,0,0,108.631,19.276Z" style="fill:#fff"/><path d="M22.945,17.608a11.484,11.484,0,0,0-1.5.223,1.23,1.23,0,0,0-.554.506c-.332.482-.627.991-.949,1.509a.815.815,0,0,1-.27-1.275,4.422,4.422,0,0,0,.739-2.694,1.527,1.527,0,0,1,.188-.864,6.136,6.136,0,0,1,.893-.87,7.417,7.417,0,0,1,.688,1.182c.086.234-.057.555-.122,1.015.483-.2.793-.337,1.114-.446,1.029-.351,1.73.263,1.562,1.342-.178,1.144-.379,2.288-.48,3.439a1.515,1.515,0,0,0,.839,1.713,1.957,1.957,0,0,0,2.121-.446,9.719,9.719,0,0,0,2.613-3.685,4.648,4.648,0,0,1,3.171-3.15A1.8,1.8,0,0,1,35.208,17.1c-.057.273-.356.495-.543.741a2.43,2.43,0,0,1-.392-.666c-.216-1.031-1.1-1.333-1.962-.591a5.192,5.192,0,0,0-1.6,3.231A5.346,5.346,0,0,0,30.7,21.6c.072.406.334.985.641,1.084a1.284,1.284,0,0,0,1.123-.524,29.056,29.056,0,0,0,1.572-3.466c.167-.431.294-.686.779-.559a.72.72,0,0,1,.613.894,9.227,9.227,0,0,0-.219,2.24,1.377,1.377,0,0,0,2.293,1.1,12.016,12.016,0,0,0,2.388-2.405c.59-.736.965-1.64,1.5-2.425.19-.279.621-.64.854-.585a1.246,1.246,0,0,1,.809.792,21.645,21.645,0,0,1,.148,2.748c.017.573,0,1.146,0,1.72l.252.079c.337-.6.708-1.179,1-1.8.419-.885.784-1.8,1.166-2.7.42-.989.867-1.32,1.529-1.121a1.668,1.668,0,0,1,.894,1.834c-.08,1-.11,2.008-.15,3.012a4.6,4.6,0,0,0,.137.731,11.013,11.013,0,0,0,.6-1.067q.81-2.006,1.583-4.028c.22-.576.489-1.068,1.228-.9a1.122,1.122,0,0,1,.926,1.393c-.1.973-.233,1.949-.24,2.924a2.029,2.029,0,0,0,.99,2.092,1.968,1.968,0,0,0,2.392-.52c.9-1,1.683-2.113,2.493-3.193a11.058,11.058,0,0,0,.648-1.095l.288.061a4.107,4.107,0,0,1-.1,1.247,9.418,9.418,0,0,1-3.315,4.353c-2.181,1.487-4.4.363-4.556-2.282-.041-.674.046-1.356.07-2.035a1.3,1.3,0,0,0-.156-.765c-.443,1.13-.859,2.273-1.343,3.385a4.94,4.94,0,0,1-.9,1.438,1.343,1.343,0,0,1-1.052.374,1.1,1.1,0,0,1-.66-.787c-.117-1.019-.1-2.053-.15-3.081-.013-.307-.051-.613-.077-.92l-.226-.057a7.384,7.384,0,0,0-.424.693c-.552,1.152-1.089,2.311-1.634,3.466a.844.844,0,0,1-.216.342c-.443.3-.914.82-1.353.8-.714-.033-.818-.818-.828-1.4-.017-1,.09-2.006.137-3.01.015-.311,0-.623,0-.934l-.239-.088c-.176.232-.353.463-.528.7a38.663,38.663,0,0,1-2.7,3.555c-1.275,1.345-2.975,1.382-3.97.265a8.387,8.387,0,0,1-.746-1.2c-.848.8-1.28,2.2-2.722,2.082-1.468-.124-1.669-1.423-2.05-2.607-.343.384-.617.712-.914,1.017a3.265,3.265,0,0,1-3.576,1.158,3.12,3.12,0,0,1-2.022-3.066,12.926,12.926,0,0,1,.159-2.184C22.867,18.117,22.91,17.865,22.945,17.608Z" style="fill:#fff"/><path d="M92.309,14.394l.8.334c.386-3.77.768-7.5,1.168-11.393-1.2.526-2.373,1.01-3.518,1.55a17.767,17.767,0,0,0-2.143,1.179A3.762,3.762,0,0,0,86.643,8.3a1.563,1.563,0,0,1,.143-2.584,29.656,29.656,0,0,1,3.6-2.07,40.255,40.255,0,0,1,3.847-1.576c.652-.238.5-.765.592-1.21.184-.866.814-1.132,1.452-.54.207.191.223.587.358.985,1.068-.236,2.215-.539,3.38-.738,3.359-.574,6.685-.667,9.753,1.151a9.225,9.225,0,0,1,2,1.647,3.6,3.6,0,0,1,.508,3.98c-1.155,3.146-3.563,5.079-6.438,6.5A23.813,23.813,0,0,1,95.378,16.36c-.659.007-.854.208-.825.843.088,1.957.131,3.915.2,5.873.026.756-.232.928-.915.592a1.7,1.7,0,0,1-.908-1.775c.061-1.713.133-3.425.226-5.137a1.259,1.259,0,0,0-.542-1.249c-.269-.192-.375-.612-.554-.93Zm2.154.839c1.493-.094,2.771-.1,4.027-.269a18.619,18.619,0,0,0,8.7-3.233,9.22,9.22,0,0,0,3.926-6.074,2.65,2.65,0,0,0-1.29-2.933,7.47,7.47,0,0,0-2.091-.874A20.829,20.829,0,0,0,96.8,2.557,1.267,1.267,0,0,0,95.773,3.79c-.247,2.133-.558,4.258-.808,6.391C94.776,11.793,94.642,13.412,94.463,15.233Z" style="fill:#fff"/><path d="M5.046,15.591c1.045.511,2.117.96,3.116,1.536,2.659,1.533,5.307,3.088,7.913,4.707a11.332,11.332,0,0,1,2,1.8c.18.183.175.547.255.828a2.379,2.379,0,0,1-.81-.178c-1.432-.938-2.808-1.967-4.267-2.861a44.459,44.459,0,0,0-9.017-4.539c-.174-.058-.358-.089-.67-.165,0,.741,0,1.408,0,2.076.009,1.552.043,3.1.019,4.656,0,.344-.167.953-.33.979a.972.972,0,0,1-1.179-.853,16.863,16.863,0,0,1-.19-2.437c0-1.331.053-2.664.136-3.992.034-.548-.061-.839-.68-.784a1.17,1.17,0,0,1-.712-.117C.362,16.065,0,15.773,0,15.524a1.13,1.13,0,0,1,.512-.887A7.66,7.66,0,0,1,2.178,14.3c.228-1.766.41-3.6.715-5.415.329-1.955.759-3.9,1.186-5.832.059-.265.422-.7.538-.673A.893.893,0,0,1,5.379,3.51C5.1,4.867,4.809,6.227,4.6,7.6c-.343,2.247-.625,4.5-.966,7C5.3,13.628,6.774,12.821,8.2,11.937A86.684,86.684,0,0,0,20.42,2.563c.353-.318.8-.943,1.282-.409.442.491-.216.856-.534,1.181A70.3,70.3,0,0,1,6.155,14.773c-.329.192-.652.394-.973.6C5.142,15.4,5.125,15.459,5.046,15.591Z" style="fill:#fff"/><path d="M66.239,21.914a4.605,4.605,0,0,0,.519-.733c.614-1.365,1.19-2.747,1.806-4.11.226-.5.39-1.161,1.187-.941.7.2.87.639.751,1.554a22.9,22.9,0,0,0-.292,3.244,1.582,1.582,0,0,0,2.411,1.545,6.527,6.527,0,0,0,2.139-1.8,14.4,14.4,0,0,0,1.469-2.613,5.918,5.918,0,0,1,2.31-2.676,1.962,1.962,0,0,1,2.3.04,3.263,3.263,0,0,1,.737,1.522.93.93,0,0,1-.273.722c-.238.253-.575.3-.626-.179-.06-.57-.14-1.119-.8-1.267a1.576,1.576,0,0,0-1.648.84,5.981,5.981,0,0,0-1.149,4.7c.068.354.379.918.6.928a1.448,1.448,0,0,0,1.153-.523,28.528,28.528,0,0,0,1.529-3.316c.184-.458.243-.938.9-.732.59.184.675.56.523,1.149a6.318,6.318,0,0,0-.211,1.933c.072,1.194,1.021,1.851,2.044,1.266a10.678,10.678,0,0,0,2.451-2.2,14.17,14.17,0,0,0,1.267-1.994,4.852,4.852,0,0,1,.363-.452l.282.091a5.519,5.519,0,0,1-.244,1.424,10.078,10.078,0,0,1-2.966,3.84c-1.691,1.306-3.232.94-4.21-.937a2.132,2.132,0,0,0-.219-.286c-.866.8-1.293,2.2-2.726,2.088-1.537-.116-1.72-1.433-2.048-2.68-.367.405-.683.764-1.011,1.111a3.876,3.876,0,0,1-2.63,1.329,2.6,2.6,0,0,1-2.944-2.743c-.019-.528,0-1.057,0-1.585l-.315-.053c-.116.243-.229.489-.348.731-.407.826-.789,1.666-1.233,2.472a1.265,1.265,0,0,1-1.563.73c-.693-.228-.75-.877-.746-1.488.007-.871.058-1.742.085-2.613.009-.282,0-.565,0-.848l-.221-.069-.9,1.365c-.521-.194-.673-.508-.427-.962a10.291,10.291,0,0,1,.876-1.468c.615-.788,1.488-.648,1.675.331a17.458,17.458,0,0,1,.1,2.917c.008.44,0,.88,0,1.319Z" style="fill:#fff"/><path d="M34.151,12.647c.567-1.121,1.119-2.233,1.7-3.328a.554.554,0,0,1,.476-.068c.19.3.523.733.427.956a29.212,29.212,0,0,1-1.54,2.957.639.639,0,0,1-.593.2C34.43,13.245,34.339,12.953,34.151,12.647Z" style="fill:#fff"/></g></g></svg>