<svg xmlns="http://www.w3.org/2000/svg" viewBox="0 0 50 50"><g id="Layer_2" data-name="Layer 2"><g id="Layer_1-2" data-name="Layer 1"><g id="Symbols"><path id="Combined-Shape-Copy" d="M49.267,29.541H43.994V24.474a4.167,4.167,0,0,0-.71-2.33,2.707,2.707,0,0,1-.462-1.514V17.774a.929.929,0,0,0-.928-.928H39.746a.929.929,0,0,0-.928.928V20.63a2.706,2.706,0,0,1-.461,1.514,4.16,4.16,0,0,0-.711,2.33v5.067H35.01V27.805a6.084,6.084,0,0,0-6.077-6.076H27.127a2.277,2.277,0,1,0-4.253,0H21.067a6.018,6.018,0,0,0-2.688.625.733.733,0,0,0,.649,1.314,4.556,4.556,0,0,1,2.039-.474h7.866a4.617,4.617,0,0,1,4.612,4.611v1.736H16.455V27.805a4.607,4.607,0,0,1,.619-2.309.732.732,0,1,0-1.267-.734,6.063,6.063,0,0,0-.817,3.043v1.736H12.353V24.474a4.159,4.159,0,0,0-.71-2.33,2.706,2.706,0,0,1-.461-1.514V17.774a.929.929,0,0,0-.928-.928H8.105a.928.928,0,0,0-.927.928V20.63a2.714,2.714,0,0,1-.461,1.514,4.16,4.16,0,0,0-.711,2.33v5.067H.732A.733.733,0,0,0,0,30.274V34.18a4.443,4.443,0,0,0,4.205,4.639,4.176,4.176,0,0,0,3.468-2.25,4.78,4.78,0,0,0,1.555,1.67V40.65a.733.733,0,0,0,1.465,0V38.787a3.325,3.325,0,0,0,.458.032,4.1,4.1,0,0,0,3.464-2.007,4.636,4.636,0,0,0,.473.631v8.162H10.693V43.774a.733.733,0,0,0-1.465,0v1.831H6.25a2.2,2.2,0,0,0,0,4.4h37.5a2.2,2.2,0,1,0,0-4.4H40.771V38.317a4.347,4.347,0,0,0,1.559-1.505A4.1,4.1,0,0,0,45.8,38.818h.025A4.506,4.506,0,0,0,50,34.084v-3.81a.732.732,0,0,0-.732-.733ZM24.189,20.918a.811.811,0,1,1,.811.811.812.812,0,0,1-.811-.811Zm14.922,3.556a2.707,2.707,0,0,1,.462-1.514,4.167,4.167,0,0,0,.71-2.33V18.311h1.074V20.63a4.16,4.16,0,0,0,.711,2.33,2.706,2.706,0,0,1,.461,1.514v5.067H39.111Zm-31.64,0a2.714,2.714,0,0,1,.461-1.514,4.16,4.16,0,0,0,.711-2.33V18.311H9.717V20.63a4.167,4.167,0,0,0,.71,2.33,2.707,2.707,0,0,1,.462,1.514v5.067H7.471ZM16.553,38.5a3.857,3.857,0,0,0,1.527.315,4.1,4.1,0,0,0,3.464-2.007,3.994,3.994,0,0,0,6.929,0,4.1,4.1,0,0,0,3.464,2.007,3.864,3.864,0,0,0,1.51-.308v7.094H16.553Zm27.929,9.3a.732.732,0,0,1-.732.732H6.25a.733.733,0,0,1,0-1.465h37.5A.733.733,0,0,1,44.482,47.8Zm-5.175-2.2h-4.4V37.461a4.445,4.445,0,0,0,.489-.649,4.1,4.1,0,0,0,3.465,2.006,3.81,3.81,0,0,0,.441-.025Zm9.228-11.521a3.051,3.051,0,0,1-2.724,3.27,2.751,2.751,0,0,1-2.519-1.882,1.035,1.035,0,0,0-.965-.678h0a1.024,1.024,0,0,0-.955.672,2.606,2.606,0,0,1-5.01,0,1.02,1.02,0,0,0-1.919,0,2.605,2.605,0,0,1-5.009,0,1.021,1.021,0,0,0-1.92,0,2.605,2.605,0,0,1-5.009,0,1.021,1.021,0,0,0-1.92,0,2.76,2.76,0,0,1-2.5,1.888,2.761,2.761,0,0,1-2.5-1.888,1.021,1.021,0,0,0-1.92,0,2.76,2.76,0,0,1-2.5,1.888A3.011,3.011,0,0,1,8.643,35.2a1.03,1.03,0,0,0-.963-.684h0a1.028,1.028,0,0,0-.964.682,3.023,3.023,0,0,1-2.509,2.16A2.985,2.985,0,0,1,1.465,34.18V31.006h47.07ZM.615,1.455q1.661.273,3.318.507C5.868,7.045,7.53,11.07,9.153,14.6a.736.736,0,0,0,.6.424l.066,0a.73.73,0,0,0,.6-.313C13.016,11,15.509,7.16,17.829,3.3l.161.008c1.989,4.055,4.15,8.107,6.426,12.048a.732.732,0,0,0,.635.366h0a.733.733,0,0,0,.634-.371c2.226-3.931,4.338-7.971,6.281-12.011l.272-.013c2.336,3.806,4.841,7.592,7.449,11.256a.731.731,0,0,0,.6.308c.024,0,.048,0,.072,0a.733.733,0,0,0,.6-.429c.913-2.032,1.8-4.1,2.645-6.151a.733.733,0,1,0-1.355-.557c-.675,1.642-1.38,3.3-2.1,4.934-2.168-3.09-4.26-6.259-6.235-9.446q5.3-.315,10.516-1.02c-.333.883-.674,1.769-1.018,2.644a.734.734,0,0,0,.414.95.745.745,0,0,0,.268.051.735.735,0,0,0,.682-.465c.444-1.13.882-2.277,1.306-3.414q1.663-.245,3.318-.531A.732.732,0,1,0,49.143.011,145.555,145.555,0,0,1,.851.01.732.732,0,1,0,.615,1.455ZM9.953,12.819C8.591,9.779,7.182,6.346,5.588,2.188q5.313.7,10.586,1.021C14.206,6.451,12.119,9.675,9.953,12.819Zm15.38-9.327q2.5,0,4.977-.085c-1.648,3.393-3.415,6.781-5.265,10.1-1.892-3.325-3.7-6.721-5.385-10.124Q22.5,3.492,25.333,3.492Z" style="fill:#fff"/></g></g></g></svg>